# xmcd
#
# Track frame offsets: 
#        150
#        3424
#        6357
#        9301
#        13201
#        15862
#        24302
#        28830
#        31937
#        35003
#        41580
#        45413
#        51857
#        54652
#        61234
#        66002
#        70337
#        74569
#        83478
#        88059
#        94070
#        103177
#        109304
#        114450
#        118901
#        128282
#        134373
#        137700
#        144901
#        152780
#        163670
#        174408
#        178666
#        183465
#        198526
#
# Disc length: 3541 seconds
#
# Revision: 0
# Processed by: cddbd v1.5.2PL0 Copyright (c) Steve Scherf et al.
# Submitted via: ExactAudioCopy v0.99pb5
#
DISCID=da0dd323
DTITLE=Richard Köchli - Masters of Blues Guitar
DYEAR=2010
DGENRE=Learn Blues
TTITLE0=Charley Patton_Song 1_Patton's Revenue
TTITLE1=Charley Patton_Song 2_Spoonful Charley
TTITLE2=Blind Blake_Song 1_Jumping Blake
TTITLE3=Blind Blake_Song 2_Blake At The West Coast
TTITLE4=Blind Willie Johnson_Song 1_It Isn't Blind Willie's Fault
TTITLE5=Blind Willie Johnson_Song 2_Willie On The Cold Ground
TTITLE6=Memphis Minnie_Song 1_Minnie's Chauffeur Swing
TTITLE7=Mississippi John Hurt_Song 1_John's Hometown Blues
TTITLE8=Mississippi John Hurt_Song 2_John's Telling
TTITLE9=Eddie Son House_Song 1_Blues And Love
TTITLE10=Eddie Son House_Song 2_House Of Delta
TTITLE11=Tampa Red_Song 1_Tampa's Sweet Blues
TTITLE12=Tampa Red_Song 2_Catline Blues
TTITLE13=Robert Johnson_Song 1_Breaking Down Blues
TTITLE14=Robert Johnson_Song 2_Mind Rambler Blues
TTITLE15=Big Bill Broonzy_Song 1_Big Glory
TTITLE16=Big Bill Broonzy_Song 2_Bill's Mississippi Blues
TTITLE17=Bukka White_Song 1_Bukka's World
TTITLE18=Bukka White_Song 2_Bukka On The Hill
TTITLE19=Fred McDowell_Song 1_Please Don't Do Me Wrong
TTITLE20=Fred McDowell_Song 2_Speedy Fred
TTITLE21=Muddy Waters_Song 1_Muddy Is Going Home
TTITLE22=Muddy Waters_Song 2_Muddy's Troubles
TTITLE23=Lightnin' Hopkins_Song 1_Sam Feels So Bad
TTITLE24=Lightnin' Hopkins_Song 2_Lightnin' Texasman
TTITLE25=Elmore James_Song 1_Elmore James' Trademark
TTITLE26=Elmore James_Song 2_Cry For Elmore
TTITLE27=John Lee Hooker_Song 1_Hooker's Mood
TTITLE28=John Lee Hooker_Song 2_John's Chillen
TTITLE29=Ry Cooder_Song 1_Bad Feelings In A Dark Night
TTITLE30=Bonnie Raitt_Song 1_Bonie's Walking Slide
TTITLE31=Eric Clapton_Song 1_Hey Big Slowhand
TTITLE32=Keb' Mo'_Song 1_Blue Baby's Sleeping
TTITLE33=Rory Block_Song 1_Rory's Wild Blues
TTITLE34=MP3
EXTD=
EXTT0=
EXTT1=
EXTT2=
EXTT3=
EXTT4=
EXTT5=
EXTT6=
EXTT7=
EXTT8=
EXTT9=
EXTT10=
EXTT11=
EXTT12=
EXTT13=
EXTT14=
EXTT15=
EXTT16=
EXTT17=
EXTT18=
EXTT19=
EXTT20=
EXTT21=
EXTT22=
EXTT23=
EXTT24=
EXTT25=
EXTT26=
EXTT27=
EXTT28=
EXTT29=
EXTT30=
EXTT31=
EXTT32=
EXTT33=
EXTT34=
PLAYORDER=
